<?xml version="1.0" encoding="UTF-8"?>
<svg width="95px" height="127px" viewBox="0 0 95 127" version="1.1" xmlns="http://www.w3.org/2000/svg" xmlns:xlink="http://www.w3.org/1999/xlink">
    <!-- Generator: Sketch 50.2 (55047) - http://www.bohemiancoding.com/sketch -->
    <title>Group</title>
    <desc>Created with Sketch.</desc>
    <defs></defs>
    <g id="Page-1" stroke="none" stroke-width="1" fill="none" fill-rule="evenodd">
        <g id="bayswater-ses-001" fill-rule="nonzero">
            <g id="Group">
                <path d="M47.3,123.7 C37.1,120.2 27,114.4 18.9,107.3 C10.4,100 4.6,91.9 2.3,84.1 L2.3,84 L2.3,11.3 L2.6,11.2 C2.6,11.2 7.3,8.9 15.2,6.7 C22.4,4.7 33.9,2.2 47.6,2.2 C61.3,2.2 72.7,4.6 80,6.7 C87.8,8.9 92.5,11.1 92.6,11.2 L92.9,11.3 L92.9,84 L92.9,84.1 C90.6,91.9 84.8,100 76.3,107.3 C68.1,114.4 58,120.2 47.9,123.7 L47.7,123.8 L47.3,123.7 Z" id="Shape" fill="#010101"></path>
                <path d="M46.6,125.9 C36.1,122.3 25.8,116.3 17.4,109.1 C8.5,101.4 2.6,93 0.1,84.8 L0,84.4 L0,9.9 L1.6,9.1 C2.4,8.8 20.8,0 47.5,0 C74.1,0 92.6,8.8 93.4,9.2 L95,9.9 L95,84.4 L94.9,84.8 C92.4,93 86.5,101.4 77.6,109.1 C69.2,116.4 58.9,122.3 48.4,125.9 L47.5,126.2 L46.6,125.9 Z M2.8,11.7 L2.8,84 C7.6,100 26.9,116.2 47.5,123.3 C68.1,116.2 87.4,100 92.2,84 L92.2,11.7 C92.2,11.7 73.8,2.8 47.5,2.8 C21.2,2.8 2.8,11.7 2.8,11.7 Z" id="Shape" fill="#F7A800"></path>
                <path d="M69.8,36.9 C77.2,45 80,57.2 76,67.8 C72.2,78.8 60.8,87.2 49.2,87.5 C43.8,87.7 38.9,86.6 34.5,84.4 C23.3,78.9 16.5,67.2 17.6,54.7 C18.3,44 25.9,33.5 35.9,29.5 C43.2,26 53.8,26.4 60.8,30.2 C64,31.9 67.1,34 69.8,36.9 Z" id="Shape" fill="#FFFFFF"></path>
                <path d="M68.8,37.8 C76,45.5 78.6,57.2 74.8,67.4 C71.2,77.9 60.2,86 49.1,86.2 C43.9,86.4 39.2,85.3 35,83.3 C24.3,78.1 17.7,66.9 18.8,54.8 C19.5,44.6 26.7,34.5 36.4,30.6 C43.4,27.3 53.6,27.7 60.3,31.2 C63.3,32.9 66.3,34.9 68.8,37.8" id="Shape" fill="#010101"></path>
                <path d="M71,42.7 C75.5,49.4 76.5,59.4 73.4,67.1 C70,77 59.7,84.6 49.1,84.9 C38.8,85.1 29.6,80.5 24,71.5 C18.5,63.5 18.8,50.4 24.3,42.4 C31,32.2 42.4,27.7 54.3,30.4 C60.9,32.1 67.1,36.6 71,42.7" id="Shape" fill="#FFCE00"></path>
                <g transform="translate(55.000000, 60.000000)">
                    <path d="M0.1,0.6 L0.3,0.6 L0.1,0.6 Z" id="Shape" fill="#FFFFFF"></path>
                    <rect id="Rectangle-path" fill="#FFCE00" x="0.1" y="0.5" width="1" height="1"></rect>
                </g>
                <g transform="translate(32.000000, 37.000000)" id="Shape">
                    <path d="M30.8,12.8 C30.9,12.3 31.7,11.5 30.7,8.7 C29.4,10.2 28.3,11.9 26.8,13.3 C28.1,11 31.1,9.4 30.6,6.6 C30.5,5.4 30.6,5.3 30.3,4.4 C29.1,6.5 28,8.7 26.4,10.6 L26.3,10.6 C27.6,8.7 28.6,7.1 29.4,5 C30,3.4 29.5,2.4 28.3,1.1 C27.6,3.6 26,5.9 24.7,8.2 C24.8,9.4 24.4,10.6 23.7,11.7 C24.1,11.4 24.4,11.3 24.6,11.3 C24.9,11.4 25,11.7 25,12.2 C25.1,13.4 24,15.5 22.8,16.5 C23.4,16.3 24,16.3 24.2,16.9 L24.2,17 C23.3,18.6 22.6,19.2 21.3,19.7 C21.5,19.8 21.8,19.8 22.1,19.7 C22.4,19.7 22.7,19.6 23.1,19.8 L23.2,19.9 C23.2,21 22.8,21.4 21.9,22.3 C21.6,22.6 21.2,22.8 20.9,23 C20.7,23.1 20.5,23.2 20.3,23.4 C20.8,23.3 21.2,23.3 21.6,23.6 L21.6,23.7 C20.6,25 19.9,25.5 18.7,26.4 C19,26.5 19.4,26.7 19.7,27 L19.7,27.1 C19.5,27.3 19.1,27.3 18.9,27.3 C18.8,27.3 18.7,27.3 18.7,27.3 C18.7,27.3 18.7,27.3 18.7,27.3 L18.5,27.3 C18.5,27.3 18.5,27.2 18.5,27.2 C18.6,27.1 18.7,27.1 18.8,27.1 C19,27.1 19.2,27.1 19.4,27 C19.1,26.7 18.6,26.5 18.4,26.5 L18.4,26.3 C19.8,25.3 20.4,24.9 21.4,23.6 C21,23.4 20.7,23.4 20.2,23.5 C20.1,23.5 20,23.5 19.9,23.5 L19.8,23.3 C20.1,23.1 20.4,22.9 20.7,22.7 C21.1,22.5 21.4,22.2 21.7,22 C22.6,21.1 23,20.7 23,19.8 C22.7,19.7 22.5,19.7 22.2,19.8 C21.8,19.8 21.5,19.9 21.1,19.6 L21.1,19.4 C22.5,18.9 23.1,18.3 24,16.7 C23.7,16.1 22.9,16.4 22.1,16.8 C22.1,16.8 22.1,16.8 22.1,16.8 L22,16.8 C23.2,16.2 24.9,13.5 24.8,12.2 C24.8,11.9 24.7,11.6 24.5,11.5 C24.2,11.4 23.7,11.8 23.2,12.3 C22.7,13 22.2,13.7 21.6,14.3 C21.3,14.7 21,15 20.7,15.4 C20.7,15.4 20.7,15.5 20.6,15.5 L20.5,15.4 C20.5,15.4 20.5,15.4 20.6,15.3 C20.7,15.2 20.8,15.1 20.9,14.9 C21.6,13.9 22.4,12.9 23.1,12.2 C24.3,10.6 25,8.9 24.3,7.1 L23.7,9.4 C21.6,13.4 16.9,16.3 15.7,20.6 C15.3,22 15.9,23.3 16,24.6 C15.1,26.4 13.6,28.2 13.7,30.3 C13.6,30.3 13.5,30.4 13.4,30.4 C13.4,28.1 14.8,26.2 15.8,24.3 C15.7,23.2 15.1,22.1 15.4,21.1 C13.2,23.7 10.6,25.6 7.9,27.1 C6.6,28 5,29 4.1,30.4 C3.6,30.4 3.1,30.4 2.5,30.4 C2.2,30.7 1.3,30.6 1.6,31.4 C1.8,32 2.3,32.2 2.9,32.2 C4.2,32.4 5.4,32.1 6.5,32 C8.2,32.6 9.9,31.4 11.5,32.3 C13.8,32 16,32.4 18.3,32.2 L19.6,32.3 C21.4,31.8 23.1,32.5 24.9,32.1 C25.8,32.4 26.9,32.3 27.9,32.2 C28.1,31.9 28.4,31.5 28.3,31 C27.5,30.2 26,30.4 24.9,30.6 C24.5,30.6 24,30.5 23.5,30.5 C23.6,30.3 23.7,30.1 23.7,29.9 L23.6,29.8 C22.8,29.9 22,30.3 21.2,30.1 C22.6,29.6 24.7,29.8 25.1,27.8 C24.2,27.9 23.3,28.3 22.4,28.2 C23.4,28 24.3,27.7 25.2,27.4 C25.8,27.1 26.3,26.5 26.2,25.8 C25.1,25.9 24.1,26.4 23.1,26.5 C24,26.1 25,26 25.9,25.5 C26.7,25 27.3,24.2 27.4,23.4 C26.3,23.7 25.3,24.4 24.2,24.3 C24.9,24.1 25.9,23.8 26.6,23.5 C27.6,23.1 28.5,21.7 28.5,21.7 C28.5,21.7 28.8,21.1 29.7,18.9 L26.6,20.2 C27.9,19.6 30.5,18.1 30.8,16.1 C30.8,16.1 31.1,14.4 30.9,13.8 C29.6,14.7 28.5,16.1 27.1,16.9 C28,15.5 29.8,14.4 30.8,12.8 Z M6.6,31.5 C6.2,31.4 5.8,31.1 5.5,30.7 C6.8,30.4 8.5,30.4 9.5,31.4 C8.8,31.7 7.6,31.6 6.6,31.5 Z M13.5,30.8 C14.7,30.5 16.4,30.5 17.4,31.5 C16.2,31.5 14.4,32.1 13.5,30.8 Z M24.2,31.6 C23.1,31.5 21.4,32.1 20.8,30.9 C22,30.6 23.5,30.6 24.2,31.6 Z" fill="#010101"></path>
                    <path d="M26.1,32.2 C25.5,32.2 25,32.1 24.6,32 C24.2,32.1 23.8,32.1 23.3,32.1 C22.9,32.1 22.4,32.1 22,32 C21.6,32 21.2,31.9 20.8,31.9 C20.2,31.9 19.8,32 19.3,32.1 L18,32 C17.5,32 17,32.1 16.4,32.1 C15.9,32.1 15.3,32.1 14.8,32.1 C14.3,32.1 13.7,32.1 13.2,32.1 C12.4,32.1 11.8,32.1 11.1,32.2 C10.7,32 10.3,31.9 9.8,31.9 C9.4,31.9 9,32 8.6,32 C8.2,32.1 7.8,32.1 7.3,32.1 C6.9,32.1 6.5,32 6.1,31.9 C5.8,31.9 5.4,32 5,32 C4.5,32.1 3.9,32.2 3.3,32.2 C3,32.2 2.7,32.2 2.4,32.1 C2.1,32.1 1.3,31.9 1,31.2 C0.8,30.6 1.2,30.5 1.6,30.4 C1.8,30.3 1.9,30.3 2,30.2 C2.5,30.2 3,30.2 3.4,30.2 L3.5,30.2 C4.3,29 5.7,28 6.9,27.2 C7,27.1 7.2,27 7.3,26.9 C10.4,25.1 12.9,23.2 14.8,20.9 L15,21 C14.8,21.7 15,22.4 15.2,23.1 C15.2,23.2 15.3,23.4 15.3,23.5 C15.3,23.4 15.3,23.3 15.3,23.3 C15.1,22.4 14.9,21.5 15.2,20.5 C15.9,18 17.8,15.9 19.6,13.9 C20.9,12.4 22.3,10.9 23.2,9.2 L23.9,6.7 L24,7 C24.4,8 24.3,9 24.1,9.9 C24.3,9.3 24.4,8.7 24.3,8.1 C24.6,7.5 25,6.9 25.3,6.4 C26.3,4.7 27.3,3 27.9,1 L27.9,0.8 L28,0.9 C29.1,2.1 29.7,3.2 29.1,4.9 C28.5,6.6 27.7,7.9 26.8,9.3 C27.8,7.9 28.6,6.4 29.4,5 C29.5,4.7 29.7,4.5 29.8,4.2 L29.9,4 L30,4.2 C30.3,4.9 30.3,5.1 30.3,5.7 C30.3,5.9 30.3,6.2 30.3,6.5 C30.5,7.6 30.1,8.6 29.6,9.4 C29.8,9.1 30.1,8.9 30.3,8.6 L30.4,8.5 L30.5,8.7 C31.3,11.1 30.9,12 30.7,12.6 C30.7,12.7 30.6,12.8 30.6,12.9 C30.2,13.5 29.7,14.1 29.2,14.6 C29.5,14.3 29.9,14 30.3,13.8 L30.4,13.7 L30.4,13.8 C30.5,14.5 30.3,16.1 30.3,16.2 C30.1,17.6 28.9,18.7 27.7,19.4 L29.3,18.7 L29.2,18.9 C28.4,21 28,21.6 28,21.7 C28,21.8 27.1,23.1 26.1,23.5 C25.7,23.7 25.1,23.9 24.6,24 C25,23.9 25.4,23.7 25.8,23.6 C26.1,23.5 26.5,23.3 26.8,23.2 L26.9,23.2 L26.9,23.3 C26.8,24.1 26.2,24.9 25.3,25.5 C24.8,25.7 24.3,25.9 23.8,26 C23.7,26 23.5,26.1 23.4,26.1 C23.6,26 23.8,26 24,25.9 C24.5,25.8 25,25.6 25.5,25.6 L25.6,25.6 L25.6,25.7 C25.7,26.4 25.1,27 24.6,27.3 C24.2,27.5 23.8,27.6 23.3,27.8 C23.3,27.8 23.4,27.8 23.4,27.8 C23.8,27.7 24.2,27.6 24.5,27.6 L24.6,27.6 L24.6,27.7 C24.3,29.2 22.9,29.5 21.7,29.8 C21.5,29.8 21.3,29.9 21.1,29.9 C21.4,29.9 21.8,29.8 22.1,29.7 C22.4,29.6 22.6,29.6 22.9,29.5 L23,29.5 L23.2,29.7 C23.2,29.9 23.1,30.1 23,30.2 C23.1,30.2 23.2,30.2 23.3,30.2 C23.6,30.2 23.9,30.3 24.2,30.3 C24.7,30.2 25.3,30.1 25.8,30.1 C26.6,30.1 27.2,30.3 27.6,30.7 C27.7,31.2 27.5,31.6 27.2,31.9 L27.1,32 C27.1,32.2 26.6,32.2 26.1,32.2 Z M24.7,31.9 C25.4,32.1 26.4,32.2 27.6,32 C27.8,31.7 28,31.4 27.9,31 C27.5,30.7 27,30.5 26.2,30.5 C25.7,30.5 25.1,30.6 24.6,30.7 C24.3,30.7 24,30.7 23.7,30.6 C23.6,30.6 23.4,30.6 23.3,30.6 L23.2,30.6 L23.3,30.5 C23.4,30.3 23.5,30.1 23.5,29.9 C23.3,29.9 23,30 22.8,30.1 C22.4,30.2 22,30.3 21.5,30.3 C21.4,30.3 21.2,30.3 21.1,30.3 L21.1,30.1 C21.4,30 21.8,29.9 22.2,29.8 C23.4,29.6 24.6,29.3 24.9,28 C24.6,28 24.3,28.1 23.9,28.2 C23.4,28.3 23,28.4 22.5,28.4 C22.4,28.4 22.3,28.4 22.2,28.4 L22.2,28.2 C23.3,27.9 24.2,27.7 25,27.4 C25.5,27.1 26,26.6 25.9,26 C25.4,26.1 25,26.2 24.6,26.3 C24.1,26.5 23.5,26.6 22.9,26.6 L22.9,26.4 C23.3,26.2 23.8,26.1 24.3,25.9 C24.8,25.8 25.3,25.6 25.8,25.4 C26.6,24.9 27.1,24.2 27.2,23.5 C26.9,23.6 26.6,23.7 26.3,23.8 C25.6,24.1 24.9,24.4 24.1,24.4 L24,24.4 L24,24.2 L24.1,24.2 C24.8,24 25.7,23.7 26.3,23.4 C27.3,23 28.1,21.7 28.1,21.7 C28.1,21.7 28.4,21.1 29.2,19.2 L26.3,20.5 L26.2,20.3 C27.3,19.8 30,18.3 30.3,16.3 C30.3,16.3 30.5,14.8 30.4,14.1 C29.9,14.5 29.4,14.9 28.9,15.4 C28.2,16 27.5,16.6 26.8,17.1 L26.7,17.1 L26.5,16.9 L26.6,16.8 C27,16.4 27.5,15.9 28,15.5 C29,14.7 29.9,13.9 30.6,12.8 C30.6,12.7 30.7,12.6 30.7,12.5 C30.9,12 31.2,11.1 30.5,8.9 C30,9.5 29.5,10.1 29.1,10.6 C28.4,11.5 27.6,12.5 26.7,13.3 L26.6,13.4 L26.4,13.2 L26.4,13.1 C26.8,12.3 27.5,11.6 28.1,11 C29.3,9.6 30.5,8.3 30.2,6.5 C30.2,6.1 30.2,5.9 30.2,5.7 C30.2,5.2 30.2,5 30,4.5 C29.9,4.7 29.8,4.9 29.7,5.1 C28.7,6.9 27.6,8.9 26.2,10.6 L26.1,10.7 L25.9,10.6 L26,10.4 C27.2,8.6 28.2,7 29,4.9 C29.6,3.3 29.1,2.4 28,1.2 C27.4,3.1 26.4,4.8 25.5,6.4 C25.2,7 24.8,7.5 24.5,8.1 C24.6,9.1 24.3,10.1 23.7,11.3 C24,11.2 24.2,11.1 24.4,11.2 C24.7,11.3 24.9,11.6 24.9,12.1 C25,13.3 24,15.2 22.9,16.3 C23.5,16.2 23.9,16.4 24.1,16.8 L24.1,16.9 C23.2,18.4 22.6,19 21.4,19.6 C21.5,19.6 21.7,19.6 21.9,19.6 C22,19.6 22.2,19.6 22.3,19.6 C22.5,19.6 22.7,19.6 22.9,19.7 L23,19.8 C23,20.9 22.6,21.4 21.7,22.3 C21.4,22.6 21,22.8 20.6,23.1 C20.5,23.1 20.4,23.2 20.4,23.2 C20.5,23.2 20.5,23.2 20.6,23.2 C20.9,23.2 21.2,23.3 21.5,23.5 L21.5,23.7 C20.5,25 19.9,25.5 18.7,26.3 C19,26.4 19.3,26.6 19.5,26.9 L19.5,27.1 C19.2,27.3 18.9,27.3 18.7,27.3 C18.6,27.3 18.6,27.3 18.5,27.3 L18.2,27.3 L18.2,27.2 C18.2,27.1 18.2,27.1 18.2,27 C18.3,26.9 18.4,26.9 18.6,26.9 C18.7,26.9 18.9,26.9 19,26.9 C18.7,26.7 18.3,26.5 18.2,26.5 L18.1,26.5 L18.1,26.2 C19.5,25.3 20.1,24.8 21,23.6 C20.9,23.5 20.7,23.5 20.5,23.5 C20.3,23.5 20.1,23.5 19.9,23.6 C19.8,23.6 19.7,23.6 19.6,23.6 L19.5,23.6 L19.4,23.3 L19.5,23.3 C19.8,23.1 20.1,22.9 20.4,22.7 C20.8,22.5 21.1,22.3 21.4,22 C22.3,21.2 22.6,20.8 22.6,19.9 C22.4,19.8 22.2,19.9 21.9,19.9 C21.8,19.9 21.6,19.9 21.5,19.9 C21.2,19.9 21,19.8 20.8,19.7 L20.8,19.4 L20.9,19.4 C22.2,18.9 22.9,18.3 23.8,16.8 C23.7,16.6 23.5,16.5 23.3,16.5 C22.9,16.5 22.4,16.7 22,16.9 L21.9,16.9 L21.7,16.6 L21.8,16.6 C23,16 24.6,13.4 24.5,12.1 C24.5,11.8 24.4,11.5 24.3,11.5 C24.3,11.5 24.3,11.5 24.2,11.5 C24,11.5 23.7,11.6 23,12.3 C22.5,13 21.9,13.7 21.4,14.3 C21.1,14.7 20.8,15 20.5,15.4 C20.5,15.4 20.5,15.5 20.4,15.5 L20.3,15.6 L20,15.4 L20.1,15.3 C20.2,15.2 20.3,15.1 20.4,14.9 C21,14 21.9,12.9 22.6,12.2 C23.5,10.9 24.4,9.3 23.9,7.5 L23.3,9.5 C22.4,11.2 21,12.7 19.6,14.2 C17.8,16.2 15.9,18.2 15.2,20.7 C15,21.6 15.1,22.5 15.3,23.4 C15.4,23.8 15.5,24.2 15.5,24.6 C15.3,25.1 15,25.6 14.7,26.1 C13.9,27.4 13.2,28.8 13.2,30.3 L13.2,30.4 L13.1,30.4 C13,30.4 12.9,30.5 12.8,30.5 L12.7,30.6 L12.7,30.5 C12.7,28.7 13.6,27.1 14.4,25.6 C14.6,25.2 14.9,24.8 15.1,24.3 C15.1,23.9 15,23.6 14.9,23.2 C14.8,22.6 14.6,22 14.7,21.4 C12.8,23.6 10.5,25.4 7.4,27.1 C7.3,27.2 7.2,27.3 7,27.3 C5.8,28.1 4.4,29.1 3.6,30.3 L3.4,30.3 C2.9,30.3 2.5,30.3 2,30.3 C1.9,30.4 1.7,30.5 1.5,30.5 C1.1,30.6 0.9,30.7 1.1,31.1 C1.3,31.7 2,31.9 2.3,31.9 C2.6,31.9 2.8,32 3.1,32 C3.7,32 4.2,31.9 4.7,31.9 C5.1,31.8 5.4,31.8 5.8,31.8 C6.1,31.9 6.5,32 6.9,32 C7.3,32 7.7,31.9 8.1,31.9 C8.5,31.8 8.9,31.8 9.3,31.8 C9.8,31.8 10.3,31.9 10.7,32.1 C11.3,32 12,32 12.8,32 C13.3,32 13.9,32 14.4,32 C14.9,32 15.5,32 16,32 C16.6,32 17.1,32 17.6,31.9 L18.9,32 C19.4,31.9 19.8,31.8 20.4,31.8 C20.8,31.8 21.2,31.8 21.7,31.9 C22.1,31.9 22.5,32 23,32 C23.8,32 24.3,32 24.7,31.9 Z M15.7,24 C15.7,24.1 15.7,24.2 15.7,24.3 C15.5,24.7 15.2,25.2 15,25.6 C14.2,27 13.4,28.5 13.3,30.3 C13.3,30.3 13.4,30.3 13.4,30.3 C13.4,28.7 14.1,27.4 14.9,26.1 C15.2,25.6 15.5,25.1 15.7,24.6 C15.7,24.4 15.7,24.2 15.7,24 Z M19.4,27.1 C19.3,27.2 19.1,27.2 18.9,27.2 C19.1,27.2 19.3,27.2 19.4,27.1 Z M18.5,26.4 C19,26 19.4,25.8 19.7,25.6 C19.3,25.8 18.9,26.1 18.5,26.4 Z M19.9,23.5 C20,23.5 20.1,23.5 20.1,23.5 C20.4,23.5 20.7,23.4 20.9,23.5 C20.7,23.5 20.4,23.5 20.2,23.5 L20.1,23.3 C20.2,23.3 20.2,23.2 20.3,23.2 C20.2,23.3 20,23.4 19.9,23.5 Z M23,20 C23,20.9 22.6,21.4 21.7,22.2 C21.7,22.2 21.6,22.3 21.6,22.3 C21.7,22.3 21.7,22.2 21.7,22.2 C22.6,21.3 23,20.9 23,20 Z M22.5,19.7 C22.7,19.7 22.8,19.7 22.9,19.8 C22.8,19.8 22.7,19.7 22.5,19.7 C22.4,19.7 22.2,19.7 22.1,19.7 C22.3,19.8 22.4,19.7 22.5,19.7 Z M21.2,19.7 C21.3,19.8 21.5,19.8 21.7,19.8 C21.8,19.8 21.9,19.8 22,19.8 C21.9,19.8 21.8,19.8 21.7,19.8 C21.5,19.8 21.4,19.8 21.2,19.7 Z M21.1,19.6 L21.2,19.6 C21.2,19.6 21.2,19.6 21.1,19.6 Z M23.4,16.4 C23.7,16.4 24,16.5 24.1,16.8 C23.9,16.4 23.5,16.3 22.8,16.5 L22.7,16.3 C23.8,15.3 24.7,13.6 24.8,12.4 C24.6,13.8 23.2,16.1 22.1,16.7 C22.5,16.6 23,16.4 23.4,16.4 Z M28.9,15 C28.7,15.2 28.4,15.4 28.2,15.6 C27.9,15.9 27.6,16.1 27.3,16.4 C27.9,16 28.3,15.5 28.9,15 C28.9,15.1 28.9,15.1 28.9,15 Z M23.5,11.6 C23.4,11.8 23.2,12 23.1,12.3 C22.4,13.1 21.5,14.1 20.9,15 C20.8,15.2 20.7,15.3 20.6,15.4 C20.9,15 21.2,14.7 21.5,14.3 C22.1,13.6 22.6,12.9 23.1,12.3 C23.3,12.1 23.5,11.9 23.7,11.8 L23.5,11.6 Z M29,10.6 C28.8,10.8 28.6,11 28.5,11.2 C28,11.7 27.5,12.3 27.1,12.9 C27.8,12.1 28.4,11.4 29,10.6 Z M24.5,11.4 C24.5,11.4 24.5,11.4 24.5,11.4 C24.7,11.5 24.8,11.7 24.9,12.1 C24.8,11.6 24.7,11.4 24.5,11.4 C24.5,11.4 24.5,11.4 24.5,11.4 Z M15.4,31.8 C14.8,31.8 13.9,31.7 13.4,30.9 L13.3,30.8 L13.4,30.8 C13.9,30.7 14.4,30.6 14.9,30.6 C16,30.6 16.8,30.9 17.3,31.5 L17.4,31.7 L17.2,31.7 C16.9,31.7 16.7,31.7 16.4,31.8 C16.2,31.7 15.8,31.8 15.4,31.8 Z M13.7,30.9 C14.1,31.4 14.6,31.6 15.5,31.6 C15.9,31.6 16.2,31.6 16.6,31.5 C16.8,31.5 17,31.5 17.2,31.4 C16.7,30.9 16,30.7 15,30.7 C14.6,30.7 14.1,30.8 13.7,30.9 Z M22.5,31.7 C21.9,31.7 21.2,31.6 20.8,30.8 L20.8,30.7 L20.9,30.7 C21.3,30.6 21.8,30.5 22.2,30.5 C22.9,30.5 23.9,30.7 24.4,31.4 L24.5,31.6 L24.3,31.6 C24,31.6 23.7,31.6 23.3,31.6 C23,31.7 22.7,31.7 22.5,31.7 Z M21,30.9 C21.2,31.4 21.7,31.6 22.5,31.6 C22.8,31.6 23,31.6 23.3,31.6 C23.6,31.6 23.8,31.6 24.1,31.6 C23.6,31 22.8,30.9 22.2,30.9 C21.8,30.8 21.4,30.8 21,30.9 Z M8.2,31.7 C7.8,31.7 7.5,31.7 7.1,31.7 C6.9,31.7 6.8,31.7 6.6,31.7 C6.1,31.5 5.7,31.2 5.5,30.9 L5.4,30.8 L5.5,30.8 C6,30.7 6.5,30.6 7,30.6 C8.1,30.6 9,30.9 9.6,31.5 L9.7,31.6 L9.6,31.7 C9.3,31.6 8.8,31.7 8.2,31.7 Z M6.7,31.4 C6.9,31.4 7,31.4 7.2,31.4 C7.6,31.4 7.9,31.4 8.3,31.4 C8.8,31.4 9.2,31.4 9.5,31.3 C8.9,30.8 8.2,30.6 7.2,30.6 C6.8,30.6 6.3,30.6 5.9,30.7 C5.9,31.1 6.2,31.3 6.7,31.4 Z" fill="#FFCE00"></path>
                </g>
                <g transform="translate(31.000000, 49.000000)" id="Shape">
                    <path d="M16.2,0.5 C14.2,2.77555756e-16 12.3,1.1 10.9,2.6 C9,4.4 6,3.8 4.7,6.4 C4.2,7.2 5.6,7.3 5.3,8 C4.9,7.9 4.9,7.2 4.3,7.2 C4.1,7.3 4,7.5 3.9,7.7 C4,8 4.2,7.9 4.4,8.1 C4.4,8.2 4.3,8.2 4.2,8.2 C2.9,8.1 1.7,9 0.7,9.7 C2.6,9.4 4.6,8.7 6.7,9.1 C6.5,9.2 6.1,9.2 5.9,9.1 C4.6,8.6 4,10.2 3,10.6 C4.1,10.4 5,9.3 6.2,9.3 C5.5,10.1 4.6,10.7 4.1,11.6 C6,10 8.5,9.2 9.9,6.9 C11.5,5.4 12.9,2.9 15.4,3.4 C16.2,3.7 17,4.4 17.6,5.2 C18.3,4.6 18.9,3.9 19.3,3.2 C18.8,1.9 17.5,0.9 16.2,0.5 Z M7.3,6.6 C7.1,6.9 6.7,7.1 6.6,7 C6.5,6.9 6.5,6.6 6.8,6.2 C7,5.9 7.4,5.7 7.5,5.8 C7.6,6 7.5,6.3 7.3,6.6 Z" fill="#010101"></path>
                    <path d="M4.2,11.6 L4,11.5 C4.3,10.9 4.8,10.4 5.4,9.9 C5.6,9.7 5.8,9.5 6,9.4 C5.4,9.5 4.9,9.8 4.4,10.1 C4,10.4 3.5,10.6 3,10.7 L3,10.5 C3.3,10.4 3.7,10.1 3.9,9.8 C4.2,9.5 4.4,9.3 4.8,9.1 C3.8,9.1 2.8,9.4 1.9,9.5 C1.5,9.6 1.1,9.7 0.7,9.7 L0.6,9.5 L0.7,9.4 C1.6,8.7 2.7,7.9 3.9,7.9 C4,7.9 4,7.9 4.1,7.9 C4,7.8 3.8,7.8 3.8,7.6 C3.8,7.6 3.9,7.5 3.9,7.4 C4,7.2 4.1,7.1 4.3,7 C4.7,7 4.8,7.3 5,7.5 C5.1,7.6 5.2,7.8 5.3,7.8 C5.3,7.6 5.2,7.5 4.9,7.3 C4.6,7.1 4.3,6.8 4.6,6.3 C5.4,4.8 6.8,4.3 8.1,3.9 C9.1,3.6 10.1,3.2 10.9,2.5 C11.8,1.5 13.4,0.2 15.3,0.2 C15.6,0.2 16,0.2 16.3,0.3 C17.5,0.7 19,1.7 19.5,3.1 C19,3.8 18.4,4.5 17.7,5.1 L17.6,5.2 L17.5,5.1 C17.1,4.6 16.4,3.7 15.4,3.3 C15.2,3.3 15,3.2 14.8,3.2 C13.2,3.2 12.1,4.4 11,5.7 C10.7,6.1 10.3,6.4 10,6.7 C9.1,8.2 7.7,9.1 6.4,9.9 C5.6,10.6 4.9,11.1 4.2,11.6 Z M6.4,9.2 L6.3,9.3 C6.1,9.5 5.8,9.8 5.6,10 C5.2,10.3 4.9,10.7 4.6,11.1 C5.2,10.7 5.8,10.3 6.3,9.9 C7.6,9.1 9,8.2 9.9,6.8 C10.2,6.5 10.5,6.1 10.9,5.8 C12,4.6 13.2,3.3 14.9,3.3 C15.1,3.3 15.4,3.3 15.6,3.4 C16.6,3.8 17.4,4.6 17.7,5.1 C18.3,4.5 18.9,3.9 19.3,3.3 C18.7,1.9 17.3,1.1 16.2,0.7 C15.9,0.6 15.6,0.6 15.2,0.6 C13.3,0.6 11.9,1.8 10.9,2.8 C10.1,3.6 9.1,3.9 8.1,4.3 C6.7,4.8 5.5,5.2 4.7,6.6 C4.5,6.9 4.7,7.1 5,7.3 C5.2,7.5 5.5,7.7 5.4,8.1 L5.4,8.2 L5.3,8.2 C5.1,8.1 5,7.9 4.8,7.8 C4.7,7.6 4.6,7.4 4.3,7.4 C4.2,7.5 4.1,7.6 4,7.7 C4,7.7 3.9,7.8 3.9,7.8 C3.9,7.9 4,7.9 4.1,8 C4.2,8 4.3,8.1 4.3,8.1 L4.4,8.2 L4.4,8.3 C4.3,8.4 4.2,8.4 4.1,8.4 C4,8.4 3.9,8.4 3.8,8.4 C2.8,8.4 1.8,9 1,9.7 C1.3,9.6 1.5,9.6 1.8,9.5 C2.9,9.3 4,9 5.2,9 C5.7,9 6.2,9 6.6,9.1 L6.6,9.3 C6.6,9.2 6.5,9.2 6.4,9.2 Z M5.4,9 C4.9,9 4.5,9.4 4.1,9.8 C4,9.9 3.9,10 3.7,10.2 C3.9,10.1 4.1,10 4.3,9.9 C4.8,9.6 5.4,9.3 6,9.2 C5.9,9.2 5.9,9.2 5.8,9.2 C5.7,9.1 5.5,9 5.4,9 Z M6.7,7.1 C6.6,7.1 6.6,7.1 6.5,7 C6.3,6.9 6.4,6.5 6.7,6.1 C7,5.8 7.3,5.6 7.5,5.7 C7.7,5.8 7.6,6.2 7.3,6.6 C7.2,7 6.9,7.1 6.7,7.1 Z M7.4,6 C7.3,6 7.1,6.1 6.9,6.4 C6.7,6.7 6.6,7 6.7,7 C6.8,7.1 7,6.9 7.3,6.7 C7.5,6.3 7.5,6 7.4,6 C7.4,6 7.4,6 7.4,6 Z" fill="#FFCE00"></path>
                </g>
                <g transform="translate(40.000000, 52.000000)" id="Shape">
                    <path d="M8.4,2.5 C8,3.3 7.6,4.2 7.4,5.1 C5.9,7.4 3.4,9.3 1.2,10.7 C1.8,9.7 3.3,8.7 2.8,7.4 C2,6.8 0.7,6.6 0.8,5.3 C1,3.5 2.8,2.5 3.9,1.2 C4.7,0.8 5.6,0.3 6.5,0.6 C7.3,0.9 8,1.7 8.4,2.5" fill="#010101"></path>
                    <path d="M1.2,10.8 L1.1,10.7 C1.3,10.4 1.5,10.1 1.8,9.8 C2.4,9.1 3,8.4 2.7,7.5 C2.5,7.4 2.3,7.3 2.1,7.1 C1.4,6.7 0.6,6.3 0.7,5.3 C0.9,4 1.8,3.1 2.8,2.2 C3.2,1.9 3.5,1.5 3.8,1.1 C4.4,0.8 5.1,0.4 5.9,0.4 C6.1,0.4 6.3,0.4 6.5,0.5 C7.4,0.9 8.2,1.7 8.5,2.4 L8.5,2.5 C8.1,3.3 7.7,4.1 7.5,5 C6.2,7.1 4.1,9 1.2,10.8 Z M3.9,1.3 C3.6,1.7 3.2,2 2.9,2.4 C2,3.3 1,4.2 0.9,5.4 C0.8,6.3 1.5,6.6 2.2,7 C2.4,7.1 2.7,7.3 2.9,7.4 C3.3,8.4 2.6,9.2 2,9.9 C1.9,10.1 1.7,10.2 1.6,10.4 C4.3,8.7 6.2,6.9 7.4,5 C7.6,4.1 8,3.3 8.4,2.5 C8.1,1.8 7.4,1 6.5,0.7 C6.3,0.6 6.1,0.6 5.9,0.6 C5.1,0.6 4.4,1 3.9,1.3 Z" fill="#FFCE00"></path>
                </g>
                <g transform="translate(34.000000, 37.000000)" id="Shape">
                    <path d="M2.6,1.3 C5.9,1.6 5.2,5.6 6.5,7.7 C7,8.9 7.2,10.2 7.7,11.3 L7.7,11 C6.7,8.1 5.9,5.2 4.9,2.3 C6.5,2.4 7.5,5.6 7,3.4 C8.3,3.6 8.6,5.1 8.9,6.2 C9.1,7.6 9.4,9 9.7,10.3 C9.6,8.9 9.4,7.3 9.1,5.9 C9,5.5 8.8,5 8.9,4.6 C11.1,5.9 10.7,7.7 10.5,6.3 C11.2,6.4 11.5,7.2 11.8,7.7 C12.1,8.7 11.9,9.9 12.1,10.9 C12.3,9.9 12,8.8 12.2,7.9 C13.2,8.6 13.3,10 13.5,9.6 C14,10 14.4,10.5 14.4,11.1 C14.5,11.4 14.2,11.7 14.4,11.9 C14.6,11.7 14.4,11.3 14.6,11.1 C15.2,11.6 15.5,12.3 15.4,13.1 L15.7,12.7 C16,13.2 16.2,13.7 16.3,14.2 L16.5,13.9 C16.6,14.2 16.9,14.5 16.7,14.9 C16.6,15 16.4,15 16.2,14.9 C15.2,13.5 13.9,12.4 12.2,12.3 C9.7,12.2 8.2,14.2 6.3,15.4 C4.8,10.3 2.4,5.5 0.1,0.8 C1.7,0.1 4,4.6 2.6,1.3" fill="#010101"></path>
                    <path d="M6.4,15.4 L6.4,15.3 C5.1,10.7 2.9,6.2 0.9,2 C0.7,1.6 0.5,1.1 0.3,0.7 L0.3,0.6 L0.4,0.6 C0.5,0.6 0.6,0.5 0.7,0.5 C1.4,0.5 2.3,1.5 2.8,2 C2.9,2.1 2.9,2.2 3,2.2 C2.9,1.9 2.7,1.4 2.6,1.2 L2.5,1.1 L2.7,1.1 C4.3,1.2 5,2.3 5.4,3.5 C5.3,3.1 5.1,2.6 5,2.2 L5,2.1 L5.1,2.1 C6,2.2 6.7,3.2 7.1,3.7 C7.1,3.7 7.2,3.8 7.2,3.8 C7.2,3.6 7.1,3.4 7.1,3.3 L7.1,3.2 L7.2,3.2 C8.5,3.4 8.8,4.7 9.1,5.7 C9.1,5.8 9.2,5.9 9.2,6.1 C9.3,7 9.5,7.9 9.7,8.8 C9.6,7.8 9.4,6.8 9.2,5.9 C9.1,5.5 8.9,5 9,4.6 L9,4.5 L9.1,4.6 C10.1,5.2 10.6,5.9 10.7,6.3 C11.3,6.4 11.6,7 11.9,7.5 C12,7.6 12,7.7 12.1,7.8 C12.2,8.1 12.2,8.3 12.2,8.6 C12.2,8.4 12.2,8.2 12.3,7.9 L12.3,7.8 L12.4,7.9 C13,8.3 13.3,9 13.5,9.3 C13.5,9.4 13.6,9.5 13.6,9.6 C13.6,9.6 13.6,9.6 13.6,9.6 L13.7,9.5 L13.8,9.6 C14.4,10.1 14.7,10.6 14.7,11.1 C14.7,11.1 14.7,11.1 14.7,11.1 C14.7,11.1 14.7,11 14.8,11 L14.9,10.9 L15,11 C15.5,11.4 15.8,12.1 15.9,12.8 L16.1,12.5 L16.2,12.6 C16.5,13.1 16.6,13.5 16.7,13.9 L16.9,13.6 L16.9,13.8 C16.9,13.9 17,14 17,14.1 C17.1,14.3 17.2,14.6 17.1,14.9 C16.9,15.1 16.6,15.1 16.5,14.8 C15.5,13.3 14.1,12.4 12.6,12.3 C10.8,12.2 9.6,13.2 8.3,14.3 C7.8,14.7 7.3,15.1 6.8,15.4 L6.4,15.4 Z M0.5,0.7 C0.7,1.1 0.9,1.5 1.1,1.9 C3.1,6.1 5.3,10.5 6.6,15.1 C7.1,14.8 7.5,14.4 8,14 C9.3,13 10.7,11.9 12.5,12 C14.1,12.1 15.5,13 16.6,14.6 C16.7,14.7 16.8,14.7 16.9,14.6 C17,14.4 16.9,14.2 16.8,14 C16.8,14 16.8,13.9 16.7,13.9 L16.5,14.2 L16.5,14 C16.4,13.6 16.3,13.1 16,12.7 L15.6,13.2 L15.6,12.9 C15.6,12.1 15.4,11.5 14.9,11 C14.9,11.1 14.9,11.2 14.9,11.3 C14.9,11.5 14.9,11.6 14.8,11.8 L14.7,11.9 L14.6,11.8 C14.5,11.6 14.5,11.4 14.6,11.3 C14.6,11.2 14.7,11.1 14.6,10.9 C14.6,10.4 14.3,10 13.8,9.6 C13.8,9.6 13.7,9.7 13.7,9.7 C13.6,9.7 13.5,9.6 13.4,9.3 C13.2,8.9 13,8.4 12.5,8 C12.4,8.4 12.5,8.9 12.5,9.3 C12.5,9.8 12.6,10.3 12.5,10.9 L12.3,10.9 C12.2,10.4 12.2,10 12.2,9.5 C12.2,8.9 12.2,8.3 12,7.7 C11.9,7.6 11.9,7.5 11.8,7.4 C11.5,7 11.3,6.5 10.9,6.4 C11,6.6 11,6.8 11,6.8 L10.9,6.8 C10.8,6.8 10.7,6.8 10.7,6.2 C10.5,5.8 10.1,5.2 9.2,4.7 C9.2,5.1 9.3,5.5 9.4,5.8 C9.7,7.1 9.9,8.6 10.1,10.2 L9.9,10.2 C9.5,8.8 9.3,7.5 9.1,6.1 C9.1,6 9,5.9 9,5.8 C8.7,4.8 8.4,3.7 7.4,3.5 C7.5,4.1 7.5,4.1 7.5,4.2 L7.4,4.2 C7.3,4.2 7.2,4.1 7.1,3.8 C6.8,3.3 6.1,2.4 5.4,2.3 C5.9,3.7 6.3,5.2 6.8,6.6 C7.2,8 7.7,9.5 8.2,10.9 L8.2,11.2 L8,11.2 C7.7,10.6 7.5,9.8 7.3,9.1 C7.2,8.6 7,8.1 6.8,7.6 C6.4,6.9 6.1,5.9 5.9,5 C5.5,3.2 5.1,1.5 3.1,1.2 C3.5,2.2 3.5,2.3 3.5,2.4 L3.4,2.4 C3.3,2.4 3.2,2.3 2.9,2 C2.4,1.5 1.6,0.5 1,0.5 C0.5,0.7 0.5,0.7 0.5,0.7 Z M5.4,3.7 C5.5,4.1 5.6,4.6 5.8,5.1 C6,6 6.2,6.9 6.6,7.6 C6.5,7.3 6.4,7 6.3,6.7 C6,5.7 5.7,4.7 5.4,3.7 Z" fill="#FFCE00"></path>
                </g>
                <g transform="translate(6.000000, 14.000000)" fill="#FFFFFF">
                    <path d="M11.4,70.8 C10.9,71.3 10.3,71.8 9.6,72.4 C9.7,72.3 9.9,72.2 10,72.1 C10.5,71.8 11,71.5 11.5,71.2 L14.7,69.4 L15.4,70.3 L9.4,73.4 L8.6,72.3 L10.4,70.4 C10.9,69.9 11.4,69.4 12,68.9 C11.4,69.3 10.8,69.7 10.2,70 L7.9,71.3 L7,70.3 L11.7,65.4 L12.4,66.3 L9.8,68.9 C9.4,69.3 9,69.7 8.5,70.1 C8.4,70.2 8.3,70.3 8.1,70.4 C8.8,70 9.6,69.5 10.2,69.2 L13.3,67.6 L13.8,68.3 L11.4,70.8 Z" id="Shape"></path>
                    <polygon id="Shape" points="11.3 75.6 15.8 70.7 18.1 72.8 17.4 73.5 16 72.2 14.8 73.4 16.1 74.6 15.5 75.3 14.1 74.1 12.7 75.6 14.2 76.9 13.5 77.7"></polygon>
                    <path d="M19.4,76.3 C19.7,75.8 20,75.3 19.6,75 C19.3,74.8 19,74.8 18.8,75.2 C18.5,75.6 18.6,75.9 18.8,76.3 C18.9,76.7 19.2,77.5 19.3,78 C19.4,78.6 19.2,79 18.9,79.4 C18.2,80.4 17.2,80.5 16.3,79.9 C15.2,79.1 15.3,78.2 16,77.2 L16.3,76.8 L17.2,77.4 L17,77.7 C16.6,78.2 16.5,78.7 16.9,79 C17.3,79.3 17.6,79.2 17.9,78.8 C18.1,78.5 18.2,78.2 18.1,77.8 C17.9,77.1 17.6,76.3 17.6,75.5 C17.6,75.1 17.8,74.8 18,74.5 C18.7,73.6 19.5,73.4 20.4,74.1 C21.8,75.1 20.9,76.3 20.5,76.9 L19.4,76.3 Z" id="Shape"></path>
                    <polygon id="Shape" points="22 75.6 25.2 77.3 24.8 78.1 23.6 77.5 21 82.6 20 82.1 22.7 77 21.5 76.5"></polygon>
                    <polygon id="Shape" points="23.4 83.7 25.8 77.5 28.7 78.6 28.3 79.5 26.5 78.8 25.9 80.4 27.6 81 27.2 81.9 25.5 81.3 24.8 83.2 26.7 83.9 26.3 84.8"></polygon>
                    <path d="M29.9,81.9 L30.7,82.1 C31.1,82.2 31.4,82 31.6,81.3 C31.8,80.6 31.5,80.4 31.1,80.3 L30.3,80.1 L29.9,81.9 Z M29.6,82.8 L28.9,85.6 L27.8,85.3 L29.4,78.8 L31.4,79.3 C32.3,79.5 32.9,80.1 32.6,81.3 C32.4,82 32.1,82.7 31.3,82.6 C31.9,82.9 32,83.4 31.8,84 C31.7,84.3 31.3,85.8 31.5,86.1 L31.5,86.2 L30.3,85.9 C30.3,85.5 30.5,84.7 30.6,84.2 C30.7,83.8 30.8,83.3 30.5,83 C30.2,82.8 29.9,82.8 29.6,82.7 L29.6,82.8 Z" id="Shape"></path>
                    <path d="M36.8,80.3 L37.9,80.4 L37,87 L35.9,86.9 L35.4,84.4 C35.2,83.6 35.1,82.7 35,81.7 C35,82.3 34.9,82.9 34.9,83.6 C34.8,84.3 34.8,84.9 34.7,85.5 L34.5,86.7 L33.4,86.6 L34.3,80 L35.4,80.1 L35.9,82.6 C36.1,83.4 36.2,84.2 36.3,85.3 C36.3,84.7 36.4,84 36.4,83.4 C36.5,82.8 36.5,82.1 36.6,81.5 L36.8,80.3 Z" id="Shape"></path>
                    <path d="M42.4,84.6 L43.3,84.6 L43,82.7 C42.9,82.4 42.9,82.1 42.9,81.8 C42.9,81.6 42.9,81.5 42.9,81.4 C42.9,81.5 42.9,81.7 42.9,81.8 C42.9,82.1 42.9,82.4 42.8,82.7 L42.4,84.6 Z M40.8,87.3 L42.1,80.6 L43.6,80.6 L45,87.3 L43.8,87.3 L43.5,85.6 L42.2,85.6 L41.9,87.3 L40.8,87.3 Z" id="Shape"></path>
                    <path d="M48.1,80.2 L49.2,80.1 L49.8,84.7 C50,86.2 49.7,86.9 48.2,87.1 C46.8,87.3 46.3,86.6 46.1,85.2 L45.5,80.6 L46.6,80.5 L47.2,85 C47.3,85.6 47.4,86.3 48.1,86.2 C48.8,86.1 48.8,85.5 48.7,84.8 L48.1,80.2 Z" id="Shape"></path>
                    <path d="M52.9,81.3 C52.8,80.7 52.6,80.2 52,80.3 C51.6,80.4 51.5,80.6 51.6,81 C51.7,81.5 52,81.6 52.4,81.8 C52.8,82 53.6,82.3 53.9,82.6 C54.4,82.9 54.6,83.3 54.7,83.8 C55,85 54.4,85.8 53.4,86.1 C52.1,86.4 51.5,85.7 51.2,84.5 L51.1,84 L52.2,83.7 L52.3,84.1 C52.4,84.7 52.7,85.2 53.2,85 C53.6,84.9 53.8,84.6 53.7,84.1 C53.6,83.7 53.4,83.5 53.1,83.3 C52.4,82.9 51.6,82.8 51.1,82.2 C50.9,81.9 50.7,81.6 50.6,81.3 C50.3,80.2 50.7,79.5 51.9,79.2 C53.6,78.8 53.9,80.3 54.1,80.9 L52.9,81.3 Z" id="Shape"></path>
                    <polygon id="Shape" points="54.1 78.9 57.6 77.6 57.9 78.6 56.7 79 58.6 84.4 57.6 84.7 55.7 79.4 54.5 79.8"></polygon>
                    <path d="M60.4,79.5 L61.2,79.1 C61.5,78.9 61.6,78.6 61.4,78 C61.1,77.3 60.8,77.3 60.4,77.5 L59.7,77.9 L60.4,79.5 Z M60.8,80.3 L62,82.9 L61,83.4 L58.1,77.4 L60,76.5 C60.9,76.1 61.7,76.1 62.2,77.2 C62.5,77.9 62.7,78.6 62.1,79 C62.7,78.8 63.1,79.1 63.4,79.7 C63.5,79.9 64.2,81.4 64.5,81.5 L64.6,81.6 L63.5,82.1 C63.2,81.8 62.9,81 62.7,80.6 C62.5,80.2 62.3,79.7 61.9,79.8 C61.6,79.8 61.3,80 61,80.1 L60.8,80.3 Z" id="Shape"></path>
                    <path d="M65.6,78 L66.4,77.5 L65.1,76 C64.9,75.8 64.7,75.5 64.5,75.3 C64.4,75.2 64.3,75.1 64.2,74.9 C64.3,75 64.3,75.2 64.4,75.3 C64.5,75.6 64.7,75.8 64.8,76.1 L65.6,78 Z M65.7,81.1 L63.3,74.7 L64.5,73.9 L69.2,78.8 L68.2,79.4 L67,78.1 L66,78.9 L66.7,80.5 L65.7,81.1 Z" id="Shape"></path>
                    <polygon id="Shape" points="70.3 78 66.1 72.8 66.9 72.1 70.5 76.5 72.1 75.2 72.7 76"></polygon>
                    <rect id="Rectangle-path" transform="translate(71.799220, 72.263650) rotate(44.870353) translate(-71.799220, -72.263650) " x="68.4492436" y="71.7136539" width="6.6999529" height="1.09999227"></rect>
                    <path d="M74.5,70.3 L75.1,69.6 L73.4,68.6 C73.1,68.4 72.9,68.3 72.6,68.1 C72.5,68 72.3,67.9 72.2,67.9 C72.3,68 72.4,68.1 72.5,68.2 C72.7,68.4 72.9,68.6 73.2,68.9 L74.5,70.3 Z M75.5,73.2 L71.2,67.9 L72.1,66.8 L78.1,70 L77.4,70.9 L75.9,70 L75.1,71 L76.2,72.3 L75.5,73.2 Z" id="Shape"></path>
                    <path d="M5.7,48.2 L6.2,48.1 C6.6,48 7,47.8 6.9,47.3 C6.8,46.9 6.4,46.8 6.1,46.8 C5.5,46.9 5.3,47.4 5.1,47.9 C4.9,48.5 4.7,49 4.3,49.4 C4,49.8 3.6,50 3,50.1 C1.6,50.3 0.8,49.6 0.6,48.2 C0.4,46.7 1.3,45.8 2.7,45.6 L2.9,47.2 C2.5,47.3 1.9,47.4 1.9,47.9 C1.9,48.3 2.2,48.4 2.5,48.4 C3,48.4 3.1,48.1 3.3,47.7 C3.6,47 3.8,46.4 4.1,45.9 C4.4,45.4 4.9,45.1 5.8,45 C7.2,44.8 8.1,45.5 8.4,46.9 C8.6,48.5 7.8,49.3 6.9,49.5 L6,49.8 L5.7,48.2 Z" id="Shape"></path>
                    <polygon id="Shape" points="0.2 44 0.3 39.4 1.8 39.4 1.8 40.8 7.8 40.9 7.8 42.6 1.7 42.6 1.7 44"></polygon>
                    <path d="M2.1,35.7 L5.3,36.8 L5.5,35.8 L2.1,35.7 Z M7.8,39.3 L0.6,36.5 L0.9,34.4 L8.6,34 L8.3,35.8 L6.8,35.8 L6.6,37.2 L8,37.6 L7.8,39.3 Z" id="Shape"></path>
                    <polygon id="Shape" points="1.5 31.6 2.9 27.3 4.3 27.7 3.9 29.1 9.6 30.9 9.1 32.6 3.4 30.8 2.9 32.1"></polygon>
                    <polygon id="Shape" points="10.5 28.7 3.7 25.3 5.6 21.7 6.9 22.3 5.9 24.4 7.1 25 8.1 23 9.4 23.7 8.5 25.7 9.9 26.4 11 24.3 12.3 24.9"></polygon>
                    <polygon id="Shape" points="14.6 21.5 8.9 16.6 11.6 13.5 12.7 14.5 11.2 16.2 12.3 17.1 13.7 15.5 14.9 16.5 13.4 18.1 14.6 19.2 16.2 17.4 17.4 18.4"></polygon>
                    <polygon id="Shape" points="18.1 17.5 13.5 11.5 15.4 10 18.9 13 18.9 12.9 16.9 8.9 18.8 7.3 23.5 13.3 22.1 14.3 18.6 9.5 18.6 9.6 21.3 15 20.3 15.8 15.7 11.9 15.6 11.9 19.4 16.4"></polygon>
                    <polygon id="Shape" points="24.5 12.7 21.1 6 24.7 4.2 25.4 5.5 23.4 6.6 24 7.8 26 6.8 26.7 8.2 24.7 9.2 25.4 10.6 27.6 9.5 28.2 10.9"></polygon>
                    <path d="M29.7,5.8 L30.3,5.6 C30.8,5.4 30.8,5 30.6,4.5 C30.3,3.6 30,3.7 29.1,4 L29.7,5.8 Z M31,9.9 L29.3,10.4 L27,3.2 L29.5,2.4 C30.9,2 31.7,2.3 32.2,3.7 C32.4,4.5 32.4,5.1 31.8,5.6 C32.3,5.6 32.7,5.8 32.9,6.3 C33.1,6.9 33.5,8.1 33.8,8.5 C33.9,8.6 33.9,8.7 34,8.7 L34,8.8 L32.2,9.4 C32.1,9.3 32,9.2 32,9 C31.8,8.4 31.6,7.8 31.4,7.3 C31.2,6.9 31,6.6 30.6,6.7 L30,6.9 L31,9.9 Z" id="Shape"></path>
                    <path d="M38.4,8.3 L38.2,7.6 C37.9,8.3 37.6,8.5 36.8,8.6 C35.3,8.8 34.7,7.8 34.5,6.5 L34.1,3.4 C33.9,1.8 34.5,0.9 36.1,0.7 C37.6,0.5 38.6,1 38.8,2.5 L38.9,3.1 L37.1,3.3 L37,2.9 C36.9,2.3 36.8,2 36.3,2 C35.8,2.1 35.7,2.4 35.7,2.9 L36.2,6.6 C36.3,7 36.5,7.2 36.9,7.2 C37.5,7.1 37.5,6.6 37.4,6.2 L37.3,5.6 L36.7,5.7 L36.5,4.4 L38.9,4.1 L39.4,8.2 L38.4,8.3 Z" id="Shape"></path>
                    <polygon id="Shape" points="40.8 8.1 41 0.6 45.1 0.7 45 2.3 42.7 2.2 42.7 3.6 44.9 3.6 44.9 5.1 42.6 5.1 42.6 6.7 45 6.8 44.9 8.3"></polygon>
                    <polygon id="Shape" points="48.4 4.6 48.4 4.6 47.7 8.7 46.1 8.4 47.6 1 49.3 1.4 49.8 5.8 49.9 5.8 50.5 1.6 52.2 1.9 50.7 9.3 48.9 9"></polygon>
                    <path d="M56.3,6.2 L56.5,5.8 C56.7,5.2 56.6,4.8 56.3,4.7 C55.8,4.5 55.6,4.7 55.4,5.2 L54,8.7 C53.8,9.1 53.9,9.4 54.3,9.6 C54.9,9.8 55.1,9.3 55.3,8.8 L55.5,8.2 L57.1,8.8 L57,9.5 C56.5,10.7 55.5,11.3 53.8,10.6 C52.3,10 52,9 52.6,7.6 L53.7,4.7 C54.3,3.2 55.3,2.7 56.8,3.3 C58.2,3.8 58.8,4.8 58.2,6.2 L58,6.8 L56.3,6.2 Z" id="Shape"></path>
                    <polygon id="Shape" points="61.9 8.8 61.9 8.8 63.9 7.1 65.4 8.1 61.6 10.8 60 13.5 58.5 12.6 60.1 9.9 60.9 5.3 62.4 6.2"></polygon>
                    <path d="M67.2,16.1 L66.8,16.5 C66.5,16.8 66.3,17.2 66.7,17.6 C67,17.9 67.4,17.8 67.7,17.5 C68.2,17.1 68,16.5 67.8,16 C67.6,15.4 67.5,14.9 67.6,14.4 C67.6,13.9 67.8,13.4 68.3,13 C69.3,12 70.4,12.1 71.4,13.1 C72.5,14.2 72.3,15.5 71.2,16.4 L70.1,15.2 C70.4,14.9 70.8,14.5 70.5,14 C70.3,13.7 70,13.7 69.7,13.9 C69.3,14.2 69.3,14.5 69.4,14.9 C69.6,15.7 69.8,16.3 69.8,16.8 C69.8,17.4 69.6,17.9 69,18.5 C68,19.5 66.8,19.5 65.8,18.4 C64.7,17.2 64.8,16.1 65.6,15.4 L66.2,14.8 L67.2,16.1 Z" id="Shape"></path>
                    <polygon id="Shape" points="68.1 20.8 74.3 16.5 76.6 19.8 75.4 20.6 74.1 18.8 72.9 19.6 74.2 21.4 73 22.3 71.7 20.5 70.4 21.4 71.8 23.3 70.5 24.2"></polygon>
                    <path d="M75.8,24.9 L76.1,25.4 C76.3,25.9 76.8,25.8 77.2,25.6 C78,25.2 77.9,24.9 77.5,24.1 L75.8,24.9 Z M71.9,26.8 L71.1,25.2 L77.9,21.9 L79,24.2 C79.6,25.5 79.4,26.4 78.1,27.1 C77.4,27.5 76.8,27.5 76.1,27 C76.2,27.5 76.1,28 75.6,28.2 C75.1,28.5 73.9,29.1 73.5,29.4 C73.4,29.5 73.4,29.6 73.3,29.7 L73.2,29.7 L72.4,28 C72.5,27.9 72.6,27.8 72.7,27.7 C73.3,27.4 73.9,27.2 74.3,26.9 C74.7,26.7 74.9,26.4 74.8,26 L74.5,25.5 L71.9,26.8 Z" id="Shape"></path>
                    <polygon id="Shape" points="73.9 31.8 80.7 28.1 81.2 29.8 76.4 32.1 76.4 32.1 81.7 31.6 82.2 33.3 74.5 33.7"></polygon>
                    <rect id="Rectangle-path" transform="translate(78.959225, 36.578075) rotate(171.784004) translate(-78.959225, -36.578075) " x="75.2093628" y="35.6781081" width="7.49972437" height="1.79993385"></rect>
                    <path d="M80.4,42.3 L80.9,42.3 C81.5,42.3 81.9,42.1 81.9,41.7 C81.9,41.1 81.6,41 81.1,41 L77.4,41 C77,41 76.7,41.2 76.7,41.6 C76.7,42.2 77.3,42.2 77.8,42.2 L78.5,42.2 L78.5,44 L77.6,44 C76.3,44 75.4,43.3 75.4,41.5 C75.4,39.9 76.2,39.2 77.8,39.2 L80.9,39.2 C82.5,39.2 83.3,39.9 83.3,41.5 C83.3,43 82.7,43.9 81.1,43.9 L80.5,43.9 L80.4,42.3 Z" id="Shape"></path>
                    <polygon id="Shape" points="75.4 45.3 82.9 46.4 82.3 50.4 80.8 50.2 81.1 47.9 79.8 47.7 79.4 49.9 77.9 49.7 78.3 47.5 76.7 47.2 76.3 49.6 74.8 49.4"></polygon>
                </g>
                <path d="M35.2,74.4 C35.3,75 35.4,75.8 35.5,76.7 C35.5,76.5 35.5,76.4 35.5,76.2 C35.5,75.7 35.6,75.1 35.7,74.6 L36.2,71.1 L37.4,71.1 L36.2,77.4 L34.8,77.4 L34.3,75 C34.2,74.3 34.1,73.7 34,73 C33.9,73.7 33.9,74.4 33.7,75 L33.3,77.5 L32,77.5 L30.8,71.2 L32,71.2 L32.5,74.7 C32.6,75.2 32.6,75.8 32.7,76.3 C32.7,76.5 32.7,76.6 32.7,76.8 C32.8,76 32.9,75.2 33,74.5 L33.6,71.2 L34.6,71.2 L35.2,74.4 Z" id="Shape" fill="#010101"></path>
                <polygon id="Shape" fill="#010101" points="37.8 77.5 37.8 71.1 41.1 71.1 41.1 72.1 39 72.1 39 73.7 41 73.7 41 74.6 39 74.6 39 76.5 41.1 76.5 41.1 77.5"></polygon>
                <path d="M45.9,73.1 C45.9,72.5 45.9,72 45.2,72 C44.8,72 44.6,72.2 44.6,72.6 C44.6,73.1 44.9,73.3 45.3,73.5 C45.7,73.7 46.4,74.2 46.7,74.5 C47.1,74.9 47.2,75.3 47.2,75.8 C47.2,77 46.4,77.6 45.2,77.6 C43.8,77.6 43.3,76.8 43.3,75.7 L43.3,75.2 L44.5,75.2 L44.5,75.6 C44.5,76.2 44.7,76.7 45.2,76.7 C45.7,76.7 45.9,76.4 45.9,76 C45.9,75.6 45.7,75.4 45.4,75.2 C44.8,74.7 44,74.4 43.5,73.7 C43.3,73.4 43.2,73.1 43.2,72.7 C43.2,71.6 43.8,71 45.1,71 C47,71 46.9,72.5 46.9,73.1 L45.9,73.1 Z" id="Shape" fill="#010101"></path>
                <polygon id="Shape" fill="#010101" points="47.8 77.5 47.8 71.1 51.1 71.1 51.1 72.1 49 72.1 49 73.7 51 73.7 51 74.6 49 74.6 49 76.5 51.1 76.5 51.1 77.5"></polygon>
                <path d="M52.9,73.8 L53.8,73.8 C54.2,73.8 54.5,73.5 54.5,72.9 C54.5,72.2 54.2,72.1 53.8,72.1 L52.9,72.1 L52.9,73.8 Z M52.9,74.7 L52.9,77.4 L51.7,77.4 L51.7,71.1 L54,71.1 C55,71.1 55.8,71.5 55.8,72.6 C55.8,73.3 55.6,74 54.8,74.1 C55.5,74.2 55.7,74.6 55.7,75.3 C55.7,75.6 55.7,77.1 56,77.3 L56,77.4 L54.7,77.4 C54.6,77 54.6,76.2 54.6,75.8 C54.6,75.4 54.6,74.9 54.2,74.8 C53.9,74.7 53.5,74.7 53.2,74.7 L52.9,74.7 Z" id="Shape" fill="#010101"></path>
                <path d="M59.2,71.1 L60.5,71.1 L59.1,77.4 L57.5,77.4 L56.1,71.1 L57.4,71.1 L58.1,75.2 C58.2,75.6 58.2,75.9 58.2,76.3 C58.2,76.5 58.3,76.6 58.3,76.8 C58.3,76.6 58.3,76.4 58.4,76.3 C58.4,75.9 58.5,75.6 58.5,75.2 L59.2,71.1 Z" id="Shape" fill="#010101"></path>
                <polygon id="Shape" fill="#010101" points="60.9 77.5 60.9 71.1 64.2 71.1 64.2 72.1 62.1 72.1 62.1 73.7 64 73.7 64 74.6 62.1 74.6 62.1 76.5 64.2 76.5 64.2 77.5"></polygon>
            </g>
        </g>
    </g>
</svg>